<mxfile host="app.diagrams.net" modified="2023-06-19T12:17:57.380Z" agent="Mozilla/5.0 (Windows NT 10.0; Win64; x64) AppleWebKit/537.36 (KHTML, like Gecko) Chrome/112.0.0.0 Safari/537.36" etag="lQak6MCKtWJU_THZCURi" version="21.5.0" type="github" pages="2">
  <diagram name="制品仓库同步" id="acfrw4Fdfz-D8Z5RY2sy">
    <mxGraphModel dx="1430" dy="666" grid="1" gridSize="10" guides="1" tooltips="1" connect="1" arrows="1" fold="1" page="1" pageScale="1" pageWidth="827" pageHeight="1169" math="0" shadow="0">
      <root>
        <mxCell id="0" />
        <mxCell id="1" parent="0" />
        <mxCell id="QnPAD4zSbZ-gy9EbpnPr-3" value="" style="edgeStyle=orthogonalEdgeStyle;rounded=0;orthogonalLoop=1;jettySize=auto;html=1;fontSize=16;" edge="1" parent="1" source="QnPAD4zSbZ-gy9EbpnPr-1" target="QnPAD4zSbZ-gy9EbpnPr-2">
          <mxGeometry relative="1" as="geometry" />
        </mxCell>
        <mxCell id="QnPAD4zSbZ-gy9EbpnPr-1" value="开始" style="ellipse;whiteSpace=wrap;html=1;fontSize=16;" vertex="1" parent="1">
          <mxGeometry x="294" y="70" width="120" height="80" as="geometry" />
        </mxCell>
        <mxCell id="QnPAD4zSbZ-gy9EbpnPr-5" value="" style="edgeStyle=orthogonalEdgeStyle;rounded=0;orthogonalLoop=1;jettySize=auto;html=1;fontSize=16;" edge="1" parent="1" source="QnPAD4zSbZ-gy9EbpnPr-2" target="QnPAD4zSbZ-gy9EbpnPr-4">
          <mxGeometry relative="1" as="geometry" />
        </mxCell>
        <mxCell id="QnPAD4zSbZ-gy9EbpnPr-2" value="查询节点" style="whiteSpace=wrap;html=1;fontSize=16;" vertex="1" parent="1">
          <mxGeometry x="294" y="240" width="120" height="60" as="geometry" />
        </mxCell>
        <mxCell id="QnPAD4zSbZ-gy9EbpnPr-7" value="离线" style="edgeStyle=orthogonalEdgeStyle;rounded=0;orthogonalLoop=1;jettySize=auto;html=1;fontSize=16;" edge="1" parent="1" source="QnPAD4zSbZ-gy9EbpnPr-4" target="QnPAD4zSbZ-gy9EbpnPr-6">
          <mxGeometry relative="1" as="geometry" />
        </mxCell>
        <mxCell id="QnPAD4zSbZ-gy9EbpnPr-9" value="在线" style="edgeStyle=orthogonalEdgeStyle;rounded=0;orthogonalLoop=1;jettySize=auto;html=1;fontSize=16;" edge="1" parent="1" source="QnPAD4zSbZ-gy9EbpnPr-4" target="QnPAD4zSbZ-gy9EbpnPr-8">
          <mxGeometry relative="1" as="geometry" />
        </mxCell>
        <mxCell id="QnPAD4zSbZ-gy9EbpnPr-4" value="状态" style="rhombus;whiteSpace=wrap;html=1;fontSize=16;" vertex="1" parent="1">
          <mxGeometry x="314" y="370" width="80" height="80" as="geometry" />
        </mxCell>
        <mxCell id="QnPAD4zSbZ-gy9EbpnPr-6" value="结束" style="ellipse;whiteSpace=wrap;html=1;fontSize=16;" vertex="1" parent="1">
          <mxGeometry x="294" y="545" width="120" height="80" as="geometry" />
        </mxCell>
        <mxCell id="QnPAD4zSbZ-gy9EbpnPr-11" value="" style="edgeStyle=orthogonalEdgeStyle;rounded=0;orthogonalLoop=1;jettySize=auto;html=1;fontSize=16;" edge="1" parent="1" source="QnPAD4zSbZ-gy9EbpnPr-13" target="QnPAD4zSbZ-gy9EbpnPr-10">
          <mxGeometry relative="1" as="geometry" />
        </mxCell>
        <mxCell id="QnPAD4zSbZ-gy9EbpnPr-8" value="制品同步" style="whiteSpace=wrap;html=1;fontSize=16;" vertex="1" parent="1">
          <mxGeometry x="490" y="380" width="120" height="60" as="geometry" />
        </mxCell>
        <mxCell id="QnPAD4zSbZ-gy9EbpnPr-14" value="同步中" style="edgeStyle=orthogonalEdgeStyle;rounded=0;orthogonalLoop=1;jettySize=auto;html=1;entryX=0;entryY=0.5;entryDx=0;entryDy=0;exitX=0;exitY=0.5;exitDx=0;exitDy=0;fontSize=16;" edge="1" parent="1" source="QnPAD4zSbZ-gy9EbpnPr-10" target="QnPAD4zSbZ-gy9EbpnPr-13">
          <mxGeometry relative="1" as="geometry" />
        </mxCell>
        <mxCell id="QnPAD4zSbZ-gy9EbpnPr-18" value="" style="edgeStyle=orthogonalEdgeStyle;rounded=0;orthogonalLoop=1;jettySize=auto;html=1;fontSize=16;" edge="1" parent="1" source="WwCX8dLgWef39WnxSGdY-2" target="QnPAD4zSbZ-gy9EbpnPr-17">
          <mxGeometry relative="1" as="geometry" />
        </mxCell>
        <mxCell id="QnPAD4zSbZ-gy9EbpnPr-10" value="结果" style="rhombus;whiteSpace=wrap;html=1;fontSize=16;" vertex="1" parent="1">
          <mxGeometry x="510" y="600" width="80" height="80" as="geometry" />
        </mxCell>
        <mxCell id="QnPAD4zSbZ-gy9EbpnPr-12" value="" style="edgeStyle=orthogonalEdgeStyle;rounded=0;orthogonalLoop=1;jettySize=auto;html=1;fontSize=16;" edge="1" parent="1" source="QnPAD4zSbZ-gy9EbpnPr-8" target="QnPAD4zSbZ-gy9EbpnPr-13">
          <mxGeometry relative="1" as="geometry">
            <mxPoint x="550" y="440" as="sourcePoint" />
            <mxPoint x="550" y="600" as="targetPoint" />
          </mxGeometry>
        </mxCell>
        <mxCell id="QnPAD4zSbZ-gy9EbpnPr-13" value="查看同步列表" style="rounded=0;whiteSpace=wrap;html=1;fontSize=16;" vertex="1" parent="1">
          <mxGeometry x="490" y="480" width="120" height="60" as="geometry" />
        </mxCell>
        <mxCell id="QnPAD4zSbZ-gy9EbpnPr-17" value="结束" style="ellipse;whiteSpace=wrap;html=1;fontSize=16;" vertex="1" parent="1">
          <mxGeometry x="490" y="860" width="120" height="80" as="geometry" />
        </mxCell>
        <mxCell id="WwCX8dLgWef39WnxSGdY-1" value="成功" style="edgeStyle=orthogonalEdgeStyle;rounded=0;orthogonalLoop=1;jettySize=auto;html=1;fontSize=16;" edge="1" parent="1" source="QnPAD4zSbZ-gy9EbpnPr-10" target="WwCX8dLgWef39WnxSGdY-2">
          <mxGeometry relative="1" as="geometry">
            <mxPoint x="550" y="680" as="sourcePoint" />
            <mxPoint x="550" y="820" as="targetPoint" />
          </mxGeometry>
        </mxCell>
        <mxCell id="WwCX8dLgWef39WnxSGdY-2" value="更新制品记录" style="rounded=0;whiteSpace=wrap;html=1;fontSize=16;" vertex="1" parent="1">
          <mxGeometry x="490" y="730" width="120" height="60" as="geometry" />
        </mxCell>
      </root>
    </mxGraphModel>
  </diagram>
  <diagram id="PtAtqGc0HavozlrR2CQE" name="制品记录">
    <mxGraphModel dx="1430" dy="666" grid="1" gridSize="10" guides="1" tooltips="1" connect="1" arrows="1" fold="1" page="1" pageScale="1" pageWidth="827" pageHeight="1169" math="0" shadow="0">
      <root>
        <mxCell id="0" />
        <mxCell id="1" parent="0" />
        <mxCell id="v5HdTeFFg1hO7Mn_cVBA-2" style="edgeStyle=orthogonalEdgeStyle;rounded=0;orthogonalLoop=1;jettySize=auto;html=1;fontSize=16;" edge="1" parent="1" source="oYoXK9MfXKx1fimpP-Xz-1" target="v5HdTeFFg1hO7Mn_cVBA-1">
          <mxGeometry relative="1" as="geometry" />
        </mxCell>
        <mxCell id="oYoXK9MfXKx1fimpP-Xz-1" value="开始" style="ellipse;whiteSpace=wrap;html=1;fontSize=16;" vertex="1" parent="1">
          <mxGeometry x="220" y="70" width="120" height="80" as="geometry" />
        </mxCell>
        <mxCell id="v5HdTeFFg1hO7Mn_cVBA-4" value="" style="edgeStyle=orthogonalEdgeStyle;rounded=0;orthogonalLoop=1;jettySize=auto;html=1;fontSize=16;" edge="1" parent="1" source="v5HdTeFFg1hO7Mn_cVBA-1" target="v5HdTeFFg1hO7Mn_cVBA-3">
          <mxGeometry relative="1" as="geometry" />
        </mxCell>
        <mxCell id="v5HdTeFFg1hO7Mn_cVBA-1" value="配置制品仓库" style="verticalLabelPosition=middle;verticalAlign=middle;html=1;shape=trapezoid;perimeter=trapezoidPerimeter;whiteSpace=wrap;size=0.23;arcSize=10;flipV=1;labelPosition=center;align=center;fontSize=16;" vertex="1" parent="1">
          <mxGeometry x="230" y="210" width="100" height="60" as="geometry" />
        </mxCell>
        <mxCell id="v5HdTeFFg1hO7Mn_cVBA-6" value="成功" style="edgeStyle=orthogonalEdgeStyle;rounded=0;orthogonalLoop=1;jettySize=auto;html=1;fontSize=16;" edge="1" parent="1" source="v5HdTeFFg1hO7Mn_cVBA-3" target="v5HdTeFFg1hO7Mn_cVBA-5">
          <mxGeometry relative="1" as="geometry" />
        </mxCell>
        <mxCell id="v5HdTeFFg1hO7Mn_cVBA-7" value="失败" style="edgeStyle=orthogonalEdgeStyle;rounded=0;orthogonalLoop=1;jettySize=auto;html=1;entryX=0;entryY=0.833;entryDx=0;entryDy=0;entryPerimeter=0;exitX=0;exitY=0.5;exitDx=0;exitDy=0;fontSize=16;" edge="1" parent="1" source="v5HdTeFFg1hO7Mn_cVBA-3" target="v5HdTeFFg1hO7Mn_cVBA-1">
          <mxGeometry relative="1" as="geometry" />
        </mxCell>
        <mxCell id="v5HdTeFFg1hO7Mn_cVBA-3" value="连接" style="rhombus;whiteSpace=wrap;html=1;arcSize=10;fontSize=16;" vertex="1" parent="1">
          <mxGeometry x="240" y="340" width="80" height="80" as="geometry" />
        </mxCell>
        <mxCell id="YCf10hZgXVA8iL6Ex6wM-2" value="" style="edgeStyle=orthogonalEdgeStyle;rounded=0;orthogonalLoop=1;jettySize=auto;html=1;fontSize=16;" edge="1" parent="1" source="v5HdTeFFg1hO7Mn_cVBA-5" target="YCf10hZgXVA8iL6Ex6wM-1">
          <mxGeometry relative="1" as="geometry" />
        </mxCell>
        <mxCell id="v5HdTeFFg1hO7Mn_cVBA-5" value="同步制品" style="whiteSpace=wrap;html=1;arcSize=10;fontSize=16;" vertex="1" parent="1">
          <mxGeometry x="400" y="350" width="120" height="60" as="geometry" />
        </mxCell>
        <mxCell id="YCf10hZgXVA8iL6Ex6wM-4" value="" style="edgeStyle=orthogonalEdgeStyle;rounded=0;orthogonalLoop=1;jettySize=auto;html=1;fontSize=16;" edge="1" parent="1" source="YCf10hZgXVA8iL6Ex6wM-1" target="YCf10hZgXVA8iL6Ex6wM-3">
          <mxGeometry relative="1" as="geometry" />
        </mxCell>
        <mxCell id="YCf10hZgXVA8iL6Ex6wM-1" value="查看仓库内制品" style="whiteSpace=wrap;html=1;arcSize=10;fontSize=16;" vertex="1" parent="1">
          <mxGeometry x="400" y="460" width="120" height="60" as="geometry" />
        </mxCell>
        <mxCell id="YCf10hZgXVA8iL6Ex6wM-6" style="edgeStyle=orthogonalEdgeStyle;rounded=0;orthogonalLoop=1;jettySize=auto;html=1;fontSize=16;" edge="1" parent="1" source="YCf10hZgXVA8iL6Ex6wM-3" target="YCf10hZgXVA8iL6Ex6wM-5">
          <mxGeometry relative="1" as="geometry" />
        </mxCell>
        <mxCell id="YCf10hZgXVA8iL6Ex6wM-3" value="查看制品同步记录" style="whiteSpace=wrap;html=1;arcSize=10;fontSize=16;" vertex="1" parent="1">
          <mxGeometry x="400" y="560" width="120" height="60" as="geometry" />
        </mxCell>
        <mxCell id="YCf10hZgXVA8iL6Ex6wM-5" value="结束" style="ellipse;whiteSpace=wrap;html=1;fontSize=16;" vertex="1" parent="1">
          <mxGeometry x="400" y="670" width="120" height="80" as="geometry" />
        </mxCell>
      </root>
    </mxGraphModel>
  </diagram>
</mxfile>
